<svg width="20" height="22" viewBox="0 0 20 22" fill="none" xmlns="http://www.w3.org/2000/svg">
<path d="M6.55556 9.88889V4.33333C6.55556 2.49239 8.04789 1 9.88889 1C11.7299 1 13.2222 2.49239 13.2222 4.33333V9.85256M8.11111 21H11.6667C14.1558 21 15.4003 21 16.3511 20.5156C17.1873 20.0894 17.8672 19.4096 18.2933 18.5733C18.7778 17.6226 18.7778 16.378 18.7778 13.8889V11.2222C18.7778 9.97767 18.7778 9.35533 18.5356 8.88C18.3226 8.46188 17.9826 8.12192 17.5644 7.90888C17.0891 7.66667 16.4668 7.66667 15.2222 7.66667H4.55556C3.311 7.66667 2.68871 7.66667 2.21336 7.90888C1.79521 8.12192 1.45526 8.46188 1.24221 8.88C1 9.35533 1 9.97767 1 11.2222V13.8889C1 16.378 1 17.6226 1.48441 18.5733C1.91052 19.4096 2.59043 20.0894 3.42671 20.5156C4.37742 21 5.62199 21 8.11111 21Z" stroke="black" stroke-width="2" stroke-linecap="round" stroke-linejoin="round"/>
</svg>
