<svg width="23" height="15" viewBox="0 0 23 15" fill="none" xmlns="http://www.w3.org/2000/svg">
<path fill-rule="evenodd" clip-rule="evenodd" d="M11.25 3.21429C11.25 2.83607 11.331 2.14286 11.457 2.14286H0V4.28571H11.457C11.331 4.28571 11.25 3.5925 11.25 3.21429ZM20.043 2.14286C19.5784 1.07143 18.342 0 16.875 0C15.0109 0 13.5 1.43893 13.5 3.21429C13.5 4.98964 15.0109 6.42857 16.875 6.42857C18.342 6.42857 19.5784 5.35714 20.043 4.28571H22.5V2.14286H20.043ZM11.25 11.7857C11.25 12.1639 11.169 12.5207 11.043 12.8571H22.5V10.7143H11.043C11.169 10.7143 11.25 11.4075 11.25 11.7857ZM9 11.7857C9 13.5611 7.48912 15 5.625 15C4.158 15 2.92163 13.9286 2.457 12.8571H0V10.7143H2.457C2.92163 9.64286 4.158 8.57143 5.625 8.57143C7.48912 8.57143 9 10.0104 9 11.7857Z" fill="#F5F5F5"/>
</svg>
